<?xml version="1.0" encoding="utf-8"?>
<!-- Generator: Adobe Illustrator 24.1.1, SVG Export Plug-In . SVG Version: 6.00 Build 0)  -->
<svg version="1.1" id="Layer_1" xmlns="http://www.w3.org/2000/svg" xmlns:xlink="http://www.w3.org/1999/xlink" x="0px" y="0px"
	 viewBox="0 0 613 613" style="enable-background:new 0 0 613 613;" xml:space="preserve">
<style type="text/css">
	.st0{fill:#F7F7F7;}
</style>
<g id="icomoon-ignore">
</g>
<path class="st0" d="M560.1,539.1c-1.8,5.6-6.2,11.7-13.3,13.8c-5.2,1.5-175.6,50.9-180.9,52.3c-15,4-25.4,1.1-32.3-5
	c-10.4-9.2-131-91.2-283-98.9c-16.3-0.8-8.3-62.4,38.2-62.4c31.8,0,124.9,23.1,136.2,11.9c8.7-8.7,12.6-60.1-23.6-149.9l0,0
	l-72.8-180.4c-6.9-17.1,1.4-36.6,18.5-43.5c17.1-6.9,36.6,1.4,43.5,18.5c0,0,57.3,142,63.6,157.4c6.2,15.4,13.8,21.2,22.1,18
	c7.4-2.8,8.9-7.7,4.4-22.7L215.1,55.2c-6-17.5,3.4-36.4,20.9-42.4c17.5-6,36.5,3.4,42.4,20.9l62.3,183.4
	c5.5,16.1,11.3,24.6,20.5,20.7c5.5-2.3,5.2-10.8,3.7-18.2L321.2,44.5c-4.5-18,6.4-36.1,24.4-40.5c17.9-4.4,36,6.4,40.5,24.4
	l40.3,161.3c5.9,23.7,11.3,32.3,20.7,29.9c9.6-2.3,9.1-10.2,7.8-16.7c-3-15.2-27.9-138.5-27.9-138.5c-3.3-16.5,7.4-32.5,23.8-35.8
	c16.4-3.3,32.4,7.4,35.7,23.8l30.3,150.8l0,0c0,0,0,0,0,0l18.2,90.4c4,17.1,8.5,33.1,14.4,48.9C584.1,434.9,566,520.5,560.1,539.1z"
	/>
</svg>
