<svg style="fill=#FFFFFF; position: absolute; width: 0; height: 0; overflow: hidden;" version="1.1" xmlns="http://www.w3.org/2000/svg" xmlns:xlink="http://www.w3.org/1999/xlink">
<defs>
<symbol id="icon-bootstrap" viewBox="0 0 32 32">
<title>bootstrap</title>
<path d="M20 0H4C1.793.006.006 1.793 0 4v16c0 2.2 1.8 4 4 4h16c2.2 0 4-1.8 4-4V4c0-2.2-1.8-4-4-4zm-2.187 16.855c-.2.482-.517.907-.923 1.234-.42.34-.952.62-1.607.82-.654.203-1.432.305-2.333.305H6.518v-14h6.802c1.258 0 2.266.283 3.02.86.76.58 1.138 1.444 1.138 2.61 0 .705-.172 1.31-.518 1.81-.344.497-.84.886-1.48 1.156v.046c.854.18 1.515.585 1.95 1.215s.658 1.426.658 2.387c0 .538-.104 1.05-.3 1.528l.025.027zm-2.776-3.45c-.41-.375-.986-.558-1.73-.558H8.985v4.368h4.334c.74 0 1.32-.192 1.73-.58.41-.385.62-.934.62-1.64-.007-.69-.21-1.224-.62-1.59h-.017zm-.6-2.823c.396-.336.59-.817.59-1.444 0-.704-.175-1.204-.53-1.49-.352-.285-.86-.433-1.528-.433h-4v3.863h4c.583 0 1.08-.17 1.464-.496z"/></symbol>

<symbol id="icon-html5" viewBox="0 0 32 32">
<title>html5</title>
<path d="M1.5 0h21l-1.91 21.563L11.977 24l-8.564-2.438L1.5 0zm7.031 9.75l-.232-2.718 10.059.003.23-2.622L5.412 4.41l.698 8.01h9.126l-.326 3.426-2.91.804-2.955-.81-.188-2.11H6.248l.33 4.171L12 19.351l5.379-1.443.744-8.157H8.531z"/>
</symbol>

<symbol id="icon-css3" viewBox="0 0 32 32">
<title>css3</title>
<path d="M1.5 0h21l-1.91 21.563L11.977 24l-8.565-2.438L1.5 0zm17.09 4.413L5.41 4.41l.213 2.622 10.125.002-.255 2.716h-6.64l.24 2.573h6.182l-.366 3.523-2.91.804-2.956-.81-.188-2.11h-2.61l.29 3.855L12 19.288l5.373-1.53L18.59 4.414z"/>
</symbol>
    
<symbol id="icon-javascript" viewBox="0 0 32 32">
<title>javascript icon</title>
<path d="M0 0h24v24H0V0zm22.034 18.276c-.175-1.095-.888-2.015-3.003-2.873-.736-.345-1.554-.585-1.797-1.14-.091-.33-.105-.51-.046-.705.15-.646.915-.84 1.515-.66.39.12.75.42.976.9 1.034-.676 1.034-.676 1.755-1.125-.27-.42-.404-.601-.586-.78-.63-.705-1.469-1.065-2.834-1.034l-.705.089c-.676.165-1.32.525-1.71 1.005-1.14 1.291-.811 3.541.569 4.471 1.365 1.02 3.361 1.244 3.616 2.205.24 1.17-.87 1.545-1.966 1.41-.811-.18-1.26-.586-1.755-1.336l-1.83 1.051c.21.48.45.689.81 1.109 1.74 1.756 6.09 1.666 6.871-1.004.029-.09.24-.705.074-1.65l.046.067zm-8.983-7.245h-2.248c0 1.938-.009 3.864-.009 5.805 0 1.232.063 2.363-.138 2.711-.33.689-1.18.601-1.566.48-.396-.196-.597-.466-.83-.855-.063-.105-.11-.196-.127-.196l-1.825 1.125c.305.63.75 1.172 1.324 1.517.855.51 2.004.675 3.207.405.783-.226 1.458-.691 1.811-1.411.51-.93.402-2.07.397-3.346.012-2.054 0-4.109 0-6.179l.004-.056z"/>
</symbol>

<symbol id="icon-sass" viewBox="0 0 32 32">
<title>sass icon</title>
<path d="M12 0c6.627 0 12 5.373 12 12s-5.373 12-12 12S0 18.627 0 12 5.373 0 12 0zM9.615 15.998c.175.645.156 1.248-.024 1.792l-.065.18c-.024.061-.052.12-.078.176-.14.29-.326.56-.555.81-.698.759-1.672 1.047-2.09.805-.45-.262-.226-1.335.584-2.19.871-.918 2.12-1.509 2.12-1.509v-.003l.108-.061zm9.911-10.861c-.542-2.133-4.077-2.834-7.422-1.645-1.989.707-4.144 1.818-5.693 3.267C4.568 8.48 4.275 9.98 4.396 10.607c.427 2.211 3.457 3.657 4.703 4.73v.006c-.367.18-3.056 1.529-3.686 2.925-.675 1.47.105 2.521.615 2.655 1.575.436 3.195-.36 4.065-1.649.84-1.261.766-2.881.404-3.676.496-.135 1.08-.195 1.83-.104 2.101.24 2.521 1.56 2.43 2.1-.09.539-.523.854-.674.944-.15.091-.195.12-.181.181.015.09.091.09.21.075.165-.03 1.096-.45 1.141-1.471.045-1.29-1.186-2.729-3.375-2.7-.9.016-1.471.091-1.875.256-.03-.045-.061-.075-.105-.105-1.35-1.455-3.855-2.475-3.75-4.41.03-.705.285-2.564 4.8-4.814 3.705-1.846 6.661-1.335 7.171-.21.733 1.604-1.576 4.59-5.431 5.024-1.47.165-2.235-.404-2.431-.615-.209-.225-.239-.24-.314-.194-.12.06-.045.255 0 .375.12.3.585.825 1.396 1.095.704.225 2.43.359 4.5-.45 2.324-.899 4.139-3.405 3.614-5.505l.073.067z"/>
</symbol>

<symbol id="icon-adobe-xd" viewBox="0 0 32 32">
<title>adobe xd icon</title>
<path d="M19.75.3H4.25C1.9.3 0 2.2 0 4.55v14.9c0 2.35 1.9 4.25 4.25 4.25h15.5c2.35 0 4.25-1.9 4.25-4.25V4.55C24 2.2 22.1.3 19.75.3zm3.24 18.76a3.623 3.623 0 0 1-3.62 3.64H4.63c-2 0-3.63-1.63-3.63-3.63V4.93c0-2 1.63-3.63 3.63-3.63h14.73a3.63 3.63 0 0 1 3.63 3.63v14.13zm-13.5-7.81l2.8 5.38c.05.08.02.16-.06.16h-1.74c-.11 0-.16-.03-.21-.13-.64-1.32-1.29-2.64-1.96-4.06H8.3c-.6 1.34-1.26 2.75-1.9 4.07-.05.08-.1.11-.18.11H4.57c-.1 0-.11-.08-.06-.14l2.74-5.22L4.6 6.14c-.06-.08 0-.14.06-.14h1.72c.1 0 .14.02.18.11.63 1.32 1.27 2.68 1.87 4.01h.02c.58-1.32 1.22-2.69 1.84-4 .05-.08.08-.13.18-.13h1.61c.08 0 .11.06.06.14l-2.65 5.12zm3.29 1.63c0-2.33 1.55-4.15 4.01-4.15.21 0 .32 0 .52.02V6.1c0-.06.05-.1.1-.1h1.58c.08 0 .1.03.1.08v9.18c0 .27 0 .61.05.98 0 .06-.02.08-.08.11-.84.4-1.72.58-2.56.58-2.17.01-3.72-1.33-3.72-4.05zm4.53-2.56c-.14-.06-.34-.1-.58-.1-1.26 0-2.14.97-2.14 2.58 0 1.84.9 2.58 2.03 2.58.24 0 .5-.03.69-.11v-4.95z"/>
</symbol>

<symbol id="icon-adobe-photoshop" viewBox="0 0 32 32">
<title>adobe photoshop icon</title>
<path d="M5.9 6.16c0-.06.02-.11.1-.11C6.63 6.02 7.53 6 8.5 6c2.7 0 3.88 1.48 3.88 3.38 0 2.48-1.82 3.54-4.02 3.54-.37 0-.5-.02-.76-.02v3.8c0 .08-.03.11-.11.11H6.01c-.08 0-.11-.03-.11-.11zm1.7 5.18c.22.02.4.02.79.02 1.14 0 2.23-.4 2.23-1.95 0-1.24-.78-1.87-2.09-1.87-.39 0-.76.02-.93.03zm8.72-1.16c-.77 0-1.03.39-1.03.71 0 .35.18.6 1.21 1.13 1.53.74 2.01 1.45 2.01 2.5 0 1.56-1.19 2.4-2.8 2.4-.85 0-1.61-.18-2.03-.42-.06-.03-.08-.08-.08-.16V14.9c0-.1.05-.13.11-.08.61.4 1.36.58 2 .58.77 0 1.09-.32 1.09-.76 0-.35-.22-.66-1.21-1.18-1.39-.66-1.96-1.34-1.96-2.46 0-1.26.98-2.3 2.69-2.3.84 0 1.46.13 1.78.27.08.05.1.13.1.19v1.34c0 .08-.05.13-.14.1-.44-.26-1.11-.42-1.74-.42zM4.25.3C1.9.3 0 2.2 0 4.55v14.9c0 2.35 1.9 4.25 4.25 4.25h15.5c2.35 0 4.25-1.9 4.25-4.25V4.55C24 2.2 22.1.3 19.75.3zm.38 1h14.73a3.63 3.63 0 0 1 3.63 3.63v14.13a3.624 3.624 0 0 1-3.62 3.64H4.63c-2 0-3.63-1.63-3.63-3.63V4.93c0-2 1.63-3.63 3.63-3.63Z"/>
</symbol>

<symbol id="icon-adobe-illustrator" viewBox="0 0 32 32">
<title>adobe illustrator icon</title>
<path d="M0 .3v23.4h24V.3H0zm1 1h22v21.4H1V1.3zm7.325 12.25l-.792 2.998c-.017.083-.05.102-.148.102H5.917c-.1 0-.115-.033-.1-.148l2.84-9.945c.05-.18.082-.338.098-.833 0-.066.033-.1.083-.1h2.096c.066 0 .1.018.116.1l3.185 10.794c.017.083 0 .132-.083.132h-1.65c-.083 0-.132-.02-.148-.086l-.825-3.015H8.322zm2.788-1.625c-.28-1.106-.94-3.528-1.188-4.7h-.017c-.214 1.17-.742 3.15-1.155 4.7h2.36zm4.5-5.558c0-.643.445-1.023 1.023-1.023.61 0 1.023.412 1.023 1.023 0 .66-.43 1.023-1.04 1.023-.6 0-1.01-.363-1.01-1.023zm.112 2.274c0-.08.033-.11.116-.11h1.57c.088 0 .12.033.12.116v7.895c0 .083-.016.116-.115.116h-1.55c-.1 0-.133-.05-.133-.13V8.64z"/>
</symbol>

<symbol id="icon-adobe-dreamweaver" viewBox="0 0 32 32">
<title>adobe dreamweaver icon</title>
<path d="M0 .3v23.4h24V.3H0zm1 1h22v21.4H1V1.3zm2.125 4.51c0-.084.017-.117.116-.133.38-.017 1.47-.05 2.597-.05 3.35 0 5.016 2.162 5.016 5.33 0 4.405-2.89 5.74-5.115 5.74-.842 0-2.064-.016-2.51-.032-.065 0-.098-.05-.098-.132V5.808zm1.8 9.27c.28.018.528.034.842.034 1.848 0 3.217-1.304 3.234-4.108.02-2.74-1.4-3.795-3.163-3.795-.347 0-.627.02-.907.038v7.837zm12.688 1.57c-.116 0-.148-.045-.165-.143-.495-2.755-.907-4.703-1.09-6.056h-.016c-.214 1.226-.61 3.257-1.27 6.078-.033.1-.066.127-.148.127h-1.617c-.116 0-.148-.016-.18-.115L11.36 8.66c-.016-.067.018-.133.117-.133h1.617c.066 0 .116.023.132.09.627 3.546.89 5.384.99 6.11h.066c.116-.858.462-2.646 1.204-6.078.033-.1.033-.124.132-.124h1.7c.082 0 .098.04.115.123.578 3.25.957 5.3 1.056 6.126h.05c.16-1.056.38-2.48 1.084-6.144.017-.066.033-.106.116-.106h1.52c.066 0 .116.033.083.116l-1.963 7.894c-.015.083-.03.116-.146.116h-1.617z"/>
</symbol>

<symbol id="icon-vs-code" viewBox="0 0 32 32">
<title>visual studio code icon</title>
<path d="M23.15 2.587L18.21.21a1.494 1.494 0 0 0-1.705.29l-9.46 8.63-4.12-3.128a.999.999 0 0 0-1.276.057L.327 7.261A1 1 0 0 0 .326 8.74L3.899 12 .326 15.26a1 1 0 0 0 .001 1.479L1.65 17.94a.999.999 0 0 0 1.276.057l4.12-3.128 9.46 8.63a1.492 1.492 0 0 0 1.704.29l4.942-2.377A1.5 1.5 0 0 0 24 20.06V3.939a1.5 1.5 0 0 0-.85-1.352zm-5.146 14.861L10.826 12l7.178-5.448v10.896z"/>
</symbol>


</defs>
</svg>
