<svg id="Layer_1" data-name="Layer 1" xmlns="http://www.w3.org/2000/svg" viewBox="0 0 982 541"><defs><style>.cls-1{fill:#f2f2f2;}</style></defs><title>footer-caption-01-01</title><path class="cls-1" d="M142.28,459.85c0,49.2-25.6,70.4-64.4,70.4-41.2,0-57.6-25.2-57.6-69.6a308.74,308.74,0,0,1,3.2-43.19l40,4.79a259.36,259.36,0,0,0-2.8,34c0,26,4.4,32.8,14,32.8,8.8,0,13.6-6.8,13.6-25.6v-8.4c0-22.8-6.4-43.59-32.4-75.19-26-31.2-36.4-56.4-36.4-91.6v-4.8c0-40,15.6-70.4,61.2-70.4,43.6,0,57.2,27.6,57.2,69.6a263.71,263.71,0,0,1-2.8,38l-40.4-4.8c1.2-10.4,2-12.8,2-28.8,0-26.8-4-33.2-12.4-33.2-8.8,0-11.6,6-11.6,24v6.4c0,17.6,6.8,35.6,25.6,59.6,26.4,34,44,70.8,44,110Z"/><path class="cls-1" d="M296.27,415.46h-12v110h-53.2V218.26h63.2c45.6,0,68,24.4,68,97.2C362.27,392.26,333.87,415.46,296.27,415.46Zm-6.4-154.8h-5.6v112.4h6c12,0,20-12,20-58C310.27,272.26,303.07,260.66,289.87,260.66Z"/><path class="cls-1" d="M567.07,525.45h-53.6l-4-42.8h-31.6l-4,42.8h-44.4l39.6-307.19h57.2Zm-62.8-85.6-9.6-122.39-12.4,122.39Z"/><path class="cls-1" d="M709.48,530.25c-39.6,0-64.4-20-64.4-65.2V279.86c0-44.4,24.8-66.8,63.6-66.8,35.19,0,60.79,12.4,60.79,67.6a315.6,315.6,0,0,1-3.2,42l-40.4-3.2a225.5,225.5,0,0,0,2.81-32.8c0-28.8-6.81-32.8-16.4-32.8s-14,4-14,19.6v196c0,14,3.6,20.4,15.6,20.4,8.8,0,14.8-6,14.8-35.2,0-9.6-1.2-21.19-2.81-32.79l40.8-3.2a282.2,282.2,0,0,1,3.2,42.39C769.87,517.45,744.28,530.25,709.48,530.25Z"/><path class="cls-1" d="M967.07,525.45h-108V218.26h107.6v42.4h-54.4v85.2h45.2v43.2h-45.2v94h54.8Z"/><path class="cls-1" d="M184.4,167.39H156.8l-12.6-63-3.8,10v53H113.8v-154h26.6v45.4l16.2-45.4H182l-21.2,56Z"/><path class="cls-1" d="M267,167.39H213v-154h26.6v132.2H267Z"/><path class="cls-1" d="M365.6,167H338.8l-2-21.4H321L319,167H296.8l19.8-153.6h28.6Zm-31.4-42.8L329.4,63l-6.2,61.2Z"/><path class="cls-1" d="M460,137.19c0,21.4-13.2,32.2-32.8,32.2-20.2,0-32.6-10.8-32.6-32v-124H421V140c0,5.8,3,8.8,7.6,8.8,4.2,0,6-3,6-9V13.39H460Z"/><path class="cls-1" d="M562.59,134.79c0,24.4-12.4,32.2-33.4,32.2H496V13.39h32.6c22.2,0,34,8.4,34,34.8ZM536,45.39c0-8.8-2.6-10.8-8.2-10.8h-5.2v111.2h4.8c6.4,0,8.6-2.6,8.6-9.8Z"/><path class="cls-1" d="M624.39,167.39h-26.6v-154h26.6Z"/><path class="cls-1" d="M725.59,167h-26.8l-2-21.4H681L679,167h-22.2l19.8-153.6h28.6Zm-31.4-42.8L689.39,63l-6.2,61.2Z"/><path class="cls-1" d="M777.59,37.19c0,9.2-6,17.4-17.2,23.6l-6.8-6.6c6.4-4.2,11.6-8.2,12-16.2h-13V13.39h25Z"/><path class="cls-1" d="M873.59,134.19c0,24.6-12.8,35.2-32.2,35.2-20.6,0-28.8-12.6-28.8-34.8a154.45,154.45,0,0,1,1.6-21.6l20,2.4a129.68,129.68,0,0,0-1.4,17c0,13,2.2,16.4,7,16.4,4.4,0,6.8-3.4,6.8-12.8v-4.2c0-11.4-3.2-21.8-16.2-37.6-13-15.6-18.2-28.2-18.2-45.8V46c0-20,7.8-35.2,30.6-35.2,21.8,0,28.6,13.8,28.6,34.8a131.86,131.86,0,0,1-1.4,19l-20.2-2.4a86,86,0,0,0,1-14.4c0-13.4-2-16.6-6.2-16.6-4.4,0-5.8,3-5.8,12v3.2c0,8.8,3.4,17.8,12.8,29.8,13.2,17,22,35.4,22,55Z"/></svg>