<svg id="Layer_1" data-name="Layer 1" xmlns="http://www.w3.org/2000/svg" xmlns:xlink="http://www.w3.org/1999/xlink" viewBox="0 0 1920 1080"><defs><style>.cls-1{fill:none;}.cls-2{clip-path:url(#clip-path);}.cls-3{opacity:0.83;}.cls-4{fill:url(#linear-gradient);}.cls-5{opacity:0.18;}.cls-6{fill:url(#linear-gradient-2);}.cls-7{opacity:0.28;}.cls-8{fill:url(#linear-gradient-3);}</style><clipPath id="clip-path"><rect class="cls-1" width="1920" height="1080"/></clipPath><linearGradient id="linear-gradient" x1="-413.77" y1="603.7" x2="2084.03" y2="1444.03" gradientTransform="matrix(-0.96, 0.22, -0.15, -0.66, 1894, 1053.96)" gradientUnits="userSpaceOnUse"><stop offset="0.02" stop-color="#f44b1e"/><stop offset="0.33" stop-color="#ad484d" stop-opacity="0.75"/><stop offset="0.66" stop-color="#6a4579" stop-opacity="0.51"/><stop offset="0.89" stop-color="#404494" stop-opacity="0.36"/><stop offset="1" stop-color="#30439f" stop-opacity="0.3"/></linearGradient><linearGradient id="linear-gradient-2" x1="-65.76" y1="727.78" x2="2614.36" y2="1629.45" gradientTransform="matrix(-0.96, 0.22, -0.15, -0.66, 1894, 1053.96)" gradientUnits="userSpaceOnUse"><stop offset="0.02" stop-color="#f44b1e"/><stop offset="0.03" stop-color="#f14b20" stop-opacity="0.99"/><stop offset="0.3" stop-color="#ad484c" stop-opacity="0.86"/><stop offset="0.54" stop-color="#784670" stop-opacity="0.75"/><stop offset="0.75" stop-color="#514489" stop-opacity="0.67"/><stop offset="0.91" stop-color="#394399" stop-opacity="0.62"/><stop offset="1" stop-color="#30439f" stop-opacity="0.6"/></linearGradient><linearGradient id="linear-gradient-3" x1="-455.61" y1="598.62" x2="2332.27" y2="1536.55" gradientTransform="matrix(-0.96, 0.22, -0.15, -0.66, 1894, 1053.96)" gradientUnits="userSpaceOnUse"><stop offset="0.02" stop-color="#f44b1e"/><stop offset="0.49" stop-color="#8f4761" stop-opacity="0.74"/><stop offset="0.84" stop-color="#4b448d" stop-opacity="0.57"/><stop offset="1" stop-color="#30439f" stop-opacity="0.5"/></linearGradient></defs><title>galaxy-01-01</title><g class="cls-2"><g class="cls-3"><path class="cls-4" d="M-456.21,584.83C-44.45,454.78,59.23,834.21,479.9,736.8s339.51-447.93,760.18-545.34S1721.75,414,2148.76,349.78c33.52-5,156.16-185.45,163.81-152.42S1969.7,311.55,1977.35,344.58s277.06,186.81,244.73,197c-411.75,130-515.43-249.39-936.1-152S946.47,837.56,525.79,935,44.13,712.46-382.88,776.65c-33.53,5-156.17,185.45-163.81,152.42s339.61-141.83,327-173.32C-266.61,638.08-488.54,595-456.21,584.83Z"/></g><g class="cls-5"><path class="cls-6" d="M-472.69,539.83C-65.33,396.61,49,789.93,469.65,692.51S808.55,242,1229.23,144.58s474.54,212.13,903.4,161.71c47.58-5.6,166.19-174.19,177-127.51s-342.29,128.45-331.48,175.13,303.48,207.55,258.28,223.45c-407.37,143.21-521.67-250.11-942.34-152.69S955.18,875.18,534.51,972.6,60,760.47-368.89,810.89c-47.59,5.6-166.2,174.19-177,127.51s340.24-162.53,321.14-206.48C-281.75,600.78-517.89,555.72-472.69,539.83Z"/></g><g class="cls-7"><path class="cls-8" d="M-488.39,498.32C-85.81,342.17,39.48,749,460.16,651.53s338.31-453.1,759-550.52S1687,302.63,2117.19,265.92c61.7-5.27,176.3-162.74,190.27-102.41s-341.72,142.7-327.75,203,329.54,227.29,271.8,249.68C1848.93,772.37,1723.64,365.59,1303,463s-338.31,453.1-759,550.52S76.18,811.91-354.07,848.62c-61.7,5.27-176.29,162.74-190.26,102.41s341.6-182.13,315.64-238.36C-295.45,568.05-546.13,520.71-488.39,498.32Z"/></g></g></svg>