<svg id="Layer_7" data-name="Layer 7" xmlns="http://www.w3.org/2000/svg" viewBox="0 0 1920 1080"><defs><style>.cls-1,.cls-10,.cls-100,.cls-101,.cls-102,.cls-103,.cls-104,.cls-105,.cls-106,.cls-107,.cls-108,.cls-109,.cls-11,.cls-110,.cls-111,.cls-112,.cls-113,.cls-114,.cls-115,.cls-116,.cls-117,.cls-118,.cls-119,.cls-12,.cls-120,.cls-121,.cls-122,.cls-123,.cls-124,.cls-125,.cls-126,.cls-127,.cls-128,.cls-129,.cls-13,.cls-130,.cls-131,.cls-132,.cls-133,.cls-134,.cls-135,.cls-136,.cls-137,.cls-138,.cls-139,.cls-14,.cls-140,.cls-141,.cls-142,.cls-143,.cls-144,.cls-145,.cls-146,.cls-147,.cls-148,.cls-149,.cls-15,.cls-150,.cls-151,.cls-152,.cls-153,.cls-154,.cls-155,.cls-156,.cls-157,.cls-158,.cls-159,.cls-16,.cls-160,.cls-161,.cls-162,.cls-163,.cls-164,.cls-165,.cls-166,.cls-167,.cls-168,.cls-169,.cls-17,.cls-170,.cls-171,.cls-172,.cls-173,.cls-174,.cls-175,.cls-176,.cls-177,.cls-178,.cls-179,.cls-18,.cls-180,.cls-181,.cls-182,.cls-183,.cls-184,.cls-185,.cls-186,.cls-187,.cls-188,.cls-189,.cls-19,.cls-190,.cls-191,.cls-192,.cls-193,.cls-194,.cls-195,.cls-196,.cls-2,.cls-20,.cls-21,.cls-22,.cls-23,.cls-24,.cls-25,.cls-26,.cls-27,.cls-28,.cls-29,.cls-3,.cls-30,.cls-31,.cls-32,.cls-33,.cls-34,.cls-35,.cls-36,.cls-37,.cls-38,.cls-39,.cls-4,.cls-40,.cls-41,.cls-42,.cls-43,.cls-44,.cls-45,.cls-46,.cls-47,.cls-48,.cls-49,.cls-5,.cls-50,.cls-51,.cls-52,.cls-53,.cls-54,.cls-55,.cls-56,.cls-57,.cls-58,.cls-59,.cls-6,.cls-60,.cls-61,.cls-62,.cls-63,.cls-64,.cls-65,.cls-66,.cls-67,.cls-68,.cls-69,.cls-7,.cls-70,.cls-71,.cls-72,.cls-73,.cls-74,.cls-75,.cls-76,.cls-77,.cls-78,.cls-79,.cls-8,.cls-80,.cls-81,.cls-82,.cls-83,.cls-84,.cls-85,.cls-86,.cls-87,.cls-88,.cls-89,.cls-9,.cls-90,.cls-91,.cls-92,.cls-93,.cls-94,.cls-95,.cls-96,.cls-97,.cls-98,.cls-99{fill:#f4f4f4;stroke:#f2f2f2;stroke-miterlimit:10;}.cls-1{stroke-width:0.52px;}.cls-2{stroke-width:0.47px;}.cls-3{stroke-width:0.77px;}.cls-4{stroke-width:0.68px;}.cls-5{stroke-width:0.77px;}.cls-6{stroke-width:0.87px;}.cls-7{stroke-width:0.97px;}.cls-8{stroke-width:0.31px;}.cls-9{stroke-width:0.24px;}.cls-10{stroke-width:0.52px;}.cls-11{stroke-width:0.8px;}.cls-12{stroke-width:0.89px;}.cls-13{stroke-width:0.2px;}.cls-14{stroke-width:0.07px;}.cls-15{stroke-width:0.14px;}.cls-16{stroke-width:0.1px;}.cls-17{stroke-width:0.11px;}.cls-18{stroke-width:0.15px;}.cls-19{stroke-width:0.07px;}.cls-20{stroke-width:0.08px;}.cls-21{stroke-width:0.08px;}.cls-22{stroke-width:0.08px;}.cls-23{stroke-width:0.13px;}.cls-24{stroke-width:0.07px;}.cls-25{stroke-width:0.11px;}.cls-26{stroke-width:0.13px;}.cls-27{stroke-width:0.14px;}.cls-28{stroke-width:0.28px;}.cls-29{stroke-width:0.31px;}.cls-30{stroke-width:0.63px;}.cls-31{stroke-width:0.41px;}.cls-32{stroke-width:0.54px;}.cls-33{stroke-width:0.19px;}.cls-34{stroke-width:0.68px;}.cls-35{stroke-width:0.29px;}.cls-36{stroke-width:0.98px;}.cls-37{stroke-width:0.89px;}.cls-38{stroke-width:0.77px;}.cls-39{stroke-width:0.46px;}.cls-40{stroke-width:0.28px;}.cls-41{stroke-width:0.83px;}.cls-42{stroke-width:0.57px;}.cls-43{stroke-width:0.11px;}.cls-44{stroke-width:0.89px;}.cls-45{stroke-width:0.62px;}.cls-46{stroke-width:0.35px;}.cls-47{stroke-width:0.49px;}.cls-48{stroke-width:0.17px;}.cls-49{stroke-width:0.21px;}.cls-50{stroke-width:0.71px;}.cls-51{stroke-width:0.18px;}.cls-52{stroke-width:0.89px;}.cls-53{stroke-width:0.79px;}.cls-54{stroke-width:0.84px;}.cls-55{stroke-width:0.64px;}.cls-56{stroke-width:0.71px;}.cls-57{stroke-width:0.54px;}.cls-58{stroke-width:0.87px;}.cls-59{stroke-width:0.38px;}.cls-60{stroke-width:0.84px;}.cls-61{stroke-width:0.91px;}.cls-62{stroke-width:0.91px;}.cls-63{stroke-width:0.4px;}.cls-64{stroke-width:0.47px;}.cls-65{stroke-width:0.7px;}.cls-66{stroke-width:0.18px;}.cls-67{stroke-width:0.44px;}.cls-68{stroke-width:0.93px;}.cls-69{stroke-width:0.27px;}.cls-70{stroke-width:0.69px;}.cls-71{stroke-width:0.17px;}.cls-72{stroke-width:0.38px;}.cls-73{stroke-width:0.94px;}.cls-74{stroke-width:0.42px;}.cls-75{stroke-width:0.45px;}.cls-76{stroke-width:0.83px;}.cls-77{stroke-width:0.28px;}.cls-78{stroke-width:0.58px;}.cls-79{stroke-width:0.84px;}.cls-80{stroke-width:0.96px;}.cls-81{stroke-width:0.39px;}.cls-82{stroke-width:0.97px;}.cls-83{stroke-width:0.71px;}.cls-84{stroke-width:0.51px;}.cls-85{stroke-width:0.85px;}.cls-86{stroke-width:0.46px;}.cls-87{stroke-width:0.73px;}.cls-88{stroke-width:0.2px;}.cls-89{stroke-width:0.14px;}.cls-90{stroke-width:0.77px;}.cls-91{stroke-width:0.36px;}.cls-92{stroke-width:0.35px;}.cls-93{stroke-width:0.48px;}.cls-94{stroke-width:0.17px;}.cls-95{stroke-width:0.64px;}.cls-96{stroke-width:0.35px;}.cls-97{stroke-width:0.99px;}.cls-98{stroke-width:0.35px;}.cls-99{stroke-width:0.71px;}.cls-100{stroke-width:0.07px;}.cls-101{stroke-width:0.37px;}.cls-102{stroke-width:0.61px;}.cls-103{stroke-width:0.16px;}.cls-104{stroke-width:0.27px;}.cls-105{stroke-width:0.23px;}.cls-106{stroke-width:0.85px;}.cls-107{stroke-width:0.32px;}.cls-108{stroke-width:0.92px;}.cls-109{stroke-width:0.3px;}.cls-110{stroke-width:0.55px;}.cls-111{stroke-width:0.36px;}.cls-112{stroke-width:0.17px;}.cls-113{stroke-width:0.37px;}.cls-114{stroke-width:0.29px;}.cls-115{stroke-width:0.49px;}.cls-116{stroke-width:0.1px;}.cls-117{stroke-width:0.72px;}.cls-118{stroke-width:0.15px;}.cls-119{stroke-width:0.25px;}.cls-120{stroke-width:0.41px;}.cls-121{stroke-width:0.16px;}.cls-122{stroke-width:0.31px;}.cls-123{stroke-width:0.44px;}.cls-124{stroke-width:0.43px;}.cls-125{stroke-width:0.07px;}.cls-126{stroke-width:0.15px;}.cls-127{stroke-width:0.13px;}.cls-128{stroke-width:0.06px;}.cls-129{stroke-width:0.12px;}.cls-130{stroke-width:0.09px;}.cls-131{stroke-width:0.14px;}.cls-132{stroke-width:0.13px;}.cls-133{stroke-width:0.06px;}.cls-134{stroke-width:0.06px;}.cls-135{stroke-width:0.08px;}.cls-136{stroke-width:0.1px;}.cls-137{stroke-width:0.07px;}.cls-138{stroke-width:0.1px;}.cls-139{stroke-width:0.11px;}.cls-140{stroke-width:0.14px;}.cls-141{stroke-width:0.06px;}.cls-142{stroke-width:0.13px;}.cls-143{stroke-width:0.07px;}.cls-144{stroke-width:0.15px;}.cls-145{stroke-width:0.07px;}.cls-146{stroke-width:0.12px;}.cls-147{stroke-width:0.13px;}.cls-148{stroke-width:0.09px;}.cls-149{stroke-width:0.12px;}.cls-150{stroke-width:0.14px;}.cls-151{stroke-width:0.06px;}.cls-152{stroke-width:0.12px;}.cls-153{stroke-width:0.14px;}.cls-154{stroke-width:0.07px;}.cls-155{stroke-width:0.1px;}.cls-156{stroke-width:0.12px;}.cls-157{stroke-width:0.1px;}.cls-158{stroke-width:0.14px;}.cls-159{stroke-width:0.11px;}.cls-160{stroke-width:0.13px;}.cls-161{stroke-width:0.1px;}.cls-162{stroke-width:0.12px;}.cls-163{stroke-width:0.08px;}.cls-164{stroke-width:0.09px;}.cls-165{stroke-width:0.1px;}.cls-166{stroke-width:0.08px;}.cls-167{stroke-width:0.13px;}.cls-168{stroke-width:0.13px;}.cls-169{stroke-width:0.14px;}.cls-170{stroke-width:0.12px;}.cls-171{stroke-width:0.1px;}.cls-172{stroke-width:0.14px;}.cls-173{stroke-width:0.13px;}.cls-174{stroke-width:0.07px;}.cls-175{stroke-width:0.14px;}.cls-176{stroke-width:0.12px;}.cls-177{stroke-width:0.07px;}.cls-178{stroke-width:0.1px;}.cls-179{stroke-width:0.09px;}.cls-180{stroke-width:0.07px;}.cls-181{stroke-width:0.14px;}.cls-182{stroke-width:0.14px;}.cls-183{stroke-width:0.12px;}.cls-184{stroke-width:0.14px;}.cls-185{stroke-width:0.09px;}.cls-186{stroke-width:0.06px;}.cls-187{stroke-width:0.12px;}.cls-188{stroke-width:0.12px;}.cls-189{stroke-width:0.06px;}.cls-190{stroke-width:0.08px;}.cls-191{stroke-width:0.12px;}.cls-192{stroke-width:0.07px;}.cls-193{stroke-width:0.14px;}.cls-194{stroke-width:0.07px;}.cls-195{stroke-width:0.07px;}.cls-196{stroke-width:0.14px;}</style></defs><title>Stars</title><circle class="cls-1" cx="317.65" cy="757.94" r="2.6"/><circle class="cls-2" cx="193.06" cy="647.92" r="2.37"/><circle class="cls-3" cx="407.53" cy="704.14" r="3.87"/><circle class="cls-4" cx="1099.95" cy="894.56" r="3.42"/><circle class="cls-5" cx="1367.53" cy="681.61" r="3.83"/><circle class="cls-6" cx="1308.29" cy="891.03" r="4.35"/><circle class="cls-7" cx="1520.72" cy="1012.54" r="4.85"/><circle class="cls-8" cx="664.89" cy="1011.86" r="1.57"/><circle class="cls-9" cx="493.31" cy="1055.73" r="1.22"/><circle class="cls-10" cx="348.29" cy="861.19" r="2.61"/><circle class="cls-11" cx="1379.78" cy="180.33" r="3.99"/><circle class="cls-12" cx="1261.31" cy="75.08" r="4.46"/><circle class="cls-13" cx="967.19" cy="163.39" r="1"/><circle class="cls-14" cx="930.42" cy="46.48" r="0.33"/><circle class="cls-15" cx="1510.5" cy="19.29" r="0.69"/><circle class="cls-16" cx="1653.48" cy="45.44" r="0.51"/><circle class="cls-17" cx="1504.38" cy="445.58" r="0.56"/><circle class="cls-18" cx="1453.31" cy="501.75" r="0.75"/><circle class="cls-19" cx="1210.25" cy="378.2" r="0.33"/><circle class="cls-20" cx="564.8" cy="552.79" r="0.41"/><circle class="cls-21" cx="534.16" cy="655.88" r="0.42"/><circle class="cls-22" cx="164.46" cy="307.74" r="0.39"/><circle class="cls-23" cx="135.36" cy="394.69" r="0.63"/><circle class="cls-24" cx="164.46" cy="92.28" r="0.34"/><circle class="cls-25" cx="158.33" cy="113.57" r="0.54"/><circle class="cls-26" cx="150.16" cy="180" r="0.66"/><circle class="cls-27" cx="68.46" cy="112.36" r="0.69"/><circle class="cls-28" cx="1324.12" cy="1041.41" r="1.39"/><circle class="cls-29" cx="1060.63" cy="1028.74" r="1.56"/><circle class="cls-30" cx="869.14" cy="950.88" r="3.17"/><circle class="cls-31" cx="1141.82" cy="625.31" r="2.06"/><circle class="cls-32" cx="778.76" cy="160.04" r="2.71"/><circle class="cls-33" cx="416.18" cy="181.6" r="0.95"/><circle class="cls-34" cx="230.08" cy="121.14" r="3.38"/><circle class="cls-35" cx="327.06" cy="331.09" r="1.47"/><circle class="cls-36" cx="575.1" cy="202.34" r="4.9"/><circle class="cls-37" cx="703.61" cy="288.84" r="4.46"/><circle class="cls-38" cx="1733.14" cy="247.78" r="3.86"/><circle class="cls-39" cx="905.97" cy="418.72" r="2.32"/><circle class="cls-40" cx="1581.99" cy="74.11" r="1.41"/><circle class="cls-41" cx="1828.08" cy="770.89" r="4.16"/><circle class="cls-42" cx="1810.73" cy="833.58" r="2.85"/><circle class="cls-43" cx="1727.25" cy="816.94" r="0.56"/><circle class="cls-44" cx="1685.18" cy="847.74" r="4.46"/><circle class="cls-45" cx="1573.06" cy="900.63" r="3.12"/><circle class="cls-46" cx="1479.64" cy="881.32" r="1.77"/><circle class="cls-47" cx="1418.91" cy="872.69" r="2.47"/><circle class="cls-48" cx="1328.48" cy="821.09" r="0.85"/><circle class="cls-49" cx="1260.14" cy="789.44" r="1.04"/><circle class="cls-50" cx="1165.61" cy="790.45" r="3.55"/><circle class="cls-51" cx="1104.41" cy="760.91" r="0.9"/><circle class="cls-52" cx="992.38" cy="657.34" r="4.44"/><circle class="cls-53" cx="876.44" cy="558.86" r="3.94"/><circle class="cls-54" cx="770.58" cy="541.68" r="4.21"/><circle class="cls-55" cx="703.84" cy="449.75" r="3.21"/><circle class="cls-56" cx="605.07" cy="454.85" r="3.57"/><circle class="cls-57" cx="445.35" cy="481.76" r="2.7"/><circle class="cls-58" cx="345.64" cy="427.07" r="4.36"/><circle class="cls-59" cx="181.01" cy="492.68" r="1.9"/><circle class="cls-60" cx="85.8" cy="709.03" r="4.2"/><circle class="cls-61" cx="47.46" cy="791.25" r="4.57"/><circle class="cls-62" cx="1253.04" cy="651.29" r="4.56"/><circle class="cls-63" cx="1214.86" cy="524.5" r="1.99"/><circle class="cls-64" cx="1109.33" cy="483.19" r="2.36"/><circle class="cls-65" cx="1073.58" cy="411.72" r="3.52"/><circle class="cls-66" cx="1078.21" cy="281.53" r="0.89"/><circle class="cls-67" cx="1050.72" cy="204.84" r="2.18"/><circle class="cls-68" cx="891.1" cy="118.07" r="4.63"/><circle class="cls-69" cx="45.99" cy="193.98" r="1.37"/><circle class="cls-70" cx="86.84" cy="240.61" r="3.44"/><circle class="cls-71" cx="758.45" cy="907.78" r="0.86"/><circle class="cls-72" cx="630.07" cy="944.6" r="1.89"/><circle class="cls-73" cx="515.73" cy="895.85" r="4.7"/><circle class="cls-74" cx="416.07" cy="970.92" r="2.11"/><circle class="cls-75" cx="283.81" cy="1028.5" r="2.26"/><circle class="cls-76" cx="1544.83" cy="904.02" r="4.13"/><circle class="cls-77" cx="1440.28" cy="927.29" r="1.38"/><circle class="cls-78" cx="1818.77" cy="1026.01" r="2.92"/><circle class="cls-79" cx="1770.86" cy="971.17" r="4.18"/><circle class="cls-80" cx="1741.46" cy="1025.56" r="4.82"/><circle class="cls-81" cx="1692.57" cy="355.19" r="1.96"/><circle class="cls-82" cx="1843.44" cy="63.28" r="4.87"/><circle class="cls-83" cx="1822.01" cy="378.01" r="3.53"/><circle class="cls-84" cx="1430.08" cy="559.03" r="2.53"/><circle class="cls-85" cx="1359.36" cy="17.65" r="4.25"/><circle class="cls-86" cx="1402.25" cy="76.88" r="2.3"/><circle class="cls-87" cx="1477.82" cy="207.97" r="3.67"/><circle class="cls-88" cx="489.23" cy="70.57" r="0.98"/><circle class="cls-89" cx="230.08" cy="377.2" r="0.68"/><circle class="cls-90" cx="101.14" cy="27.78" r="3.87"/><circle class="cls-91" cx="45.99" cy="312.94" r="1.78"/><circle class="cls-92" cx="101.14" cy="929.23" r="1.77"/><circle class="cls-93" cx="141.99" cy="1000.88" r="2.4"/><circle class="cls-69" cx="1.06" cy="1053.89" r="1.37"/><circle class="cls-94" cx="52.12" cy="502.02" r="0.83"/><circle class="cls-95" cx="668.97" cy="21.45" r="3.2"/><circle class="cls-96" cx="272.45" cy="549.38" r="1.73"/><circle class="cls-97" cx="1337.81" cy="511.2" r="4.93"/><circle class="cls-98" cx="1453.67" cy="649.74" r="1.76"/><circle class="cls-99" cx="483.87" cy="566.89" r="3.55"/><circle class="cls-100" cx="1843.41" cy="930.68" r="0.34"/><circle class="cls-101" cx="1715.66" cy="74.36" r="1.87"/><circle class="cls-102" cx="1825.97" cy="176.68" r="3.07"/><circle class="cls-103" cx="1600.75" cy="239.01" r="0.82"/><circle class="cls-104" cx="840.85" cy="297.66" r="1.34"/><circle class="cls-105" cx="657" cy="130.75" r="1.16"/><circle class="cls-106" cx="1593.74" cy="564" r="4.23"/><circle class="cls-107" cx="1748.46" cy="621.7" r="1.6"/><circle class="cls-108" cx="1690.25" cy="749.2" r="4.58"/><circle class="cls-109" cx="1529.4" cy="653.38" r="1.51"/><circle class="cls-110" cx="1777.57" cy="742.98" r="2.76"/><circle class="cls-111" cx="1121.91" cy="51.78" r="1.81"/><circle class="cls-112" cx="1295.02" cy="342.55" r="0.86"/><circle class="cls-113" cx="1265.91" cy="206.23" r="1.84"/><circle class="cls-114" cx="1503.36" cy="348.33" r="1.43"/><circle class="cls-115" cx="291.61" cy="617.18" r="2.46"/><circle class="cls-116" cx="337.57" cy="32.28" r="0.48"/><circle class="cls-117" cx="999.36" cy="78.63" r="3.62"/><circle class="cls-118" cx="774.16" cy="45.67" r="0.77"/><circle class="cls-119" cx="323.78" cy="50.56" r="1.26"/><circle class="cls-120" cx="5.14" cy="123.63" r="2.03"/><circle class="cls-121" cx="11.27" cy="607.49" r="0.78"/><circle class="cls-122" cx="585.74" cy="1030.15" r="1.53"/><circle class="cls-123" cx="881.4" cy="1047.67" r="2.22"/><circle class="cls-124" cx="855.36" cy="855.24" r="2.14"/><circle class="cls-125" cx="1397.66" cy="240.06" r="0.35"/><circle class="cls-126" cx="1301.43" cy="236.77" r="0.74"/><circle class="cls-127" cx="1159.33" cy="234.98" r="0.67"/><circle class="cls-128" cx="1066.98" cy="252.82" r="0.32"/><circle class="cls-129" cx="925.3" cy="165.06" r="0.58"/><circle class="cls-130" cx="828.47" cy="255.33" r="0.47"/><circle class="cls-131" cx="742.35" cy="190.7" r="0.69"/><circle class="cls-132" cx="606.17" cy="204.27" r="0.67"/><circle class="cls-133" cx="519.69" cy="183.26" r="0.32"/><circle class="cls-134" cx="418.96" cy="243.42" r="0.3"/><circle class="cls-135" cx="338.81" cy="163.55" r="0.39"/><circle class="cls-136" cx="212.39" cy="218.18" r="0.52"/><circle class="cls-137" cx="1417.23" cy="330.09" r="0.36"/><circle class="cls-138" cx="1250.96" cy="479.74" r="0.48"/><circle class="cls-139" cx="1146.85" cy="561.92" r="0.56"/><circle class="cls-140" cx="1039.49" cy="613.14" r="0.7"/><circle class="cls-141" cx="994.37" cy="687.75" r="0.31"/><circle class="cls-142" cx="894.96" cy="720.08" r="0.65"/><circle class="cls-143" cx="755.59" cy="736.39" r="0.35"/><circle class="cls-144" cx="603.04" cy="802.89" r="0.74"/><circle class="cls-145" cx="478.06" cy="819.23" r="0.36"/><circle class="cls-146" cx="360.79" cy="777.6" r="0.6"/><circle class="cls-147" cx="251.44" cy="788.91" r="0.63"/><circle class="cls-148" cx="105.61" cy="854.58" r="0.46"/><circle class="cls-149" cx="1325.4" cy="448.03" r="0.6"/><circle class="cls-150" cx="1198.73" cy="472.17" r="0.7"/><circle class="cls-151" cx="1108.35" cy="430.91" r="0.32"/><circle class="cls-152" cx="985.58" cy="421.67" r="0.59"/><circle class="cls-153" cx="860.47" cy="464.05" r="0.69"/><circle class="cls-154" cx="772.33" cy="470.56" r="0.36"/><circle class="cls-155" cx="678.93" cy="495.99" r="0.49"/><circle class="cls-156" cx="569.95" cy="495.87" r="0.62"/><circle class="cls-157" cx="484" cy="499.38" r="0.48"/><circle class="cls-158" cx="365.63" cy="453.24" r="0.72"/><circle class="cls-159" cx="299.65" cy="351.41" r="0.57"/><circle class="cls-160" cx="244.87" cy="261.26" r="0.66"/><circle class="cls-161" cx="544.38" cy="282.64" r="0.49"/><circle class="cls-162" cx="583.19" cy="438.63" r="0.6"/><circle class="cls-163" cx="1503.97" cy="62.8" r="0.4"/><circle class="cls-164" cx="1528.13" cy="245.83" r="0.44"/><circle class="cls-165" cx="1428.64" cy="375.07" r="0.49"/><circle class="cls-166" cx="1494.16" cy="468.82" r="0.42"/><circle class="cls-167" cx="1488.53" cy="596.24" r="0.63"/><circle class="cls-168" cx="1594.81" cy="720.07" r="0.63"/><circle class="cls-169" cx="1577.26" cy="844.65" r="0.71"/><circle class="cls-170" cx="1662.19" cy="981.38" r="0.62"/><circle class="cls-171" cx="1667.96" cy="354.94" r="0.51"/><circle class="cls-172" cx="1614.89" cy="484.98" r="0.68"/><circle class="cls-173" cx="1645.57" cy="598.23" r="0.65"/><circle class="cls-174" cx="1752.46" cy="679.37" r="0.35"/><circle class="cls-175" cx="1748.34" cy="821.41" r="0.7"/><circle class="cls-176" cx="1724.94" cy="898.57" r="0.6"/><circle class="cls-177" cx="1630.12" cy="367.59" r="0.33"/><circle class="cls-178" cx="1709.19" cy="457.19" r="0.48"/><circle class="cls-179" cx="1750.58" cy="540.82" r="0.46"/><circle class="cls-180" cx="1697.85" cy="666.76" r="0.33"/><circle class="cls-181" cx="413.68" cy="892.47" r="0.68"/><circle class="cls-182" cx="260.69" cy="852.24" r="0.68"/><circle class="cls-183" cx="117.08" cy="898.52" r="0.61"/><circle class="cls-184" cx="43.78" cy="976.08" r="0.7"/><circle class="cls-185" cx="146.08" cy="547.71" r="0.45"/><circle class="cls-186" cx="92.97" cy="532.11" r="0.31"/><circle class="cls-187" cx="86.84" cy="351.4" r="0.58"/><circle class="cls-188" cx="1330.76" cy="608.64" r="0.61"/><circle class="cls-189" cx="1827.1" cy="548.49" r="0.3"/><circle class="cls-190" cx="1843.44" cy="399.05" r="0.4"/><circle class="cls-191" cx="1861.82" cy="657.72" r="0.62"/><circle class="cls-192" cx="1853.65" cy="881.9" r="0.33"/><circle class="cls-193" cx="1882.25" cy="935.53" r="0.7"/><circle class="cls-194" cx="1820.97" cy="958.97" r="0.35"/><circle class="cls-195" cx="1864.89" cy="1006.43" r="0.37"/><circle class="cls-196" cx="1632.04" cy="959.38" r="0.68"/></svg>