<svg id="Layer_1" data-name="Layer 1" xmlns="http://www.w3.org/2000/svg" viewBox="0 0 200 200"><defs><style>.cls-1{fill:#f7f7f7;}</style></defs><title>star_icon</title><path class="cls-1" d="M143.94,190l-38.55-20.61a12.91,12.91,0,0,0-12-.08L54.55,189.39a12.9,12.9,0,0,1-18.63-13.73l7.69-43A12.91,12.91,0,0,0,40,121.18L8.9,90.45a12.9,12.9,0,0,1,7.3-22l43.31-6a13,13,0,0,0,9.76-7L88.89,16.46a12.9,12.9,0,0,1,23.14.17L131.1,56a12.91,12.91,0,0,0,9.66,7.13L184,69.68a12.9,12.9,0,0,1,7,22L159.46,122a12.89,12.89,0,0,0-3.79,11.39l7.08,43.14A12.89,12.89,0,0,1,143.94,190Z"/></svg>