<?xml version="1.0" encoding="utf-8"?>
<!-- Generator: Adobe Illustrator 24.1.1, SVG Export Plug-In . SVG Version: 6.00 Build 0)  -->
<svg version="1.1" id="Layer_1" xmlns="http://www.w3.org/2000/svg" xmlns:xlink="http://www.w3.org/1999/xlink" x="0px" y="0px"
	 viewBox="0 0 200 200" style="enable-background:new 0 0 200 200;" xml:space="preserve">
<style type="text/css">
	.st0{fill:#CC0033;}
</style>
<path class="st0" d="M138.2,187l-31.3-16.8c-4.7-2.5-10.3-2.5-15-0.1l-31.6,16.3c-7.9,4.1-17.6,1-21.7-6.9
	c-1.6-3.1-2.2-6.7-1.5-10.2l6.3-35c0.9-5.2-0.8-10.6-4.5-14.3L13.5,95c-6.3-6.2-6.4-16.4-0.1-22.8c2.5-2.5,5.7-4.1,9.2-4.6l35.2-4.9
	c5.2-0.7,9.8-4,12.2-8.7l16-31.8c4-7.9,13.7-11.1,21.6-7.1c3.2,1.6,5.7,4.2,7.2,7.4l15.5,32c2.3,4.8,6.8,8.1,12.1,8.9l35.1,5.4
	c8.8,1.3,14.8,9.6,13.5,18.4c-0.5,3.5-2.2,6.7-4.8,9.2l-25.6,24.6c-3.8,3.7-5.6,9-4.7,14.2l5.8,35.1c1.5,8.8-4.5,17.1-13.2,18.5
	C145,189.3,141.4,188.7,138.2,187z"/>
</svg>
