<svg id="Layer_1" data-name="Layer 1" xmlns="http://www.w3.org/2000/svg" viewBox="0 0 200 200"><defs><style>.cls-1{fill:#30439f;}</style></defs><title>star-nav-02</title><path class="cls-1" d="M138.22,187l-31.35-16.8a16.11,16.11,0,0,0-15-.1L60.3,186.42a16.1,16.1,0,0,1-23.24-17.14l6.26-35A16.13,16.13,0,0,0,38.79,120L13.51,95a16.1,16.1,0,0,1,9.11-27.4l35.22-4.86A16.08,16.08,0,0,0,70,54L86,22.25a16.11,16.11,0,0,1,28.88.21l15.51,32a16.09,16.09,0,0,0,12.06,8.89l35.14,5.36a16.11,16.11,0,0,1,8.73,27.53l-25.63,24.63A16.1,16.1,0,0,0,156,135.09l5.76,35.08A16.1,16.1,0,0,1,138.22,187Z"/></svg>