<svg id="Layer_1" data-name="Layer 1" xmlns="http://www.w3.org/2000/svg" viewBox="0 0 1147 422"><defs><style>.cls-1{fill:#f2f2f2;}</style></defs><title>title</title><path class="cls-1" d="M267.7,347.1c0,49.2-25.6,70.4-64.4,70.4-41.2,0-57.6-25.2-57.6-69.6a308.89,308.89,0,0,1,3.2-43.2l40,4.8a259.36,259.36,0,0,0-2.8,34c0,26,4.4,32.8,14,32.8,8.8,0,13.6-6.8,13.6-25.6v-8.4c0-22.8-6.4-43.6-32.4-75.2-26-31.2-36.4-56.4-36.4-91.6v-4.8c0-40,15.6-70.39,61.2-70.39,43.6,0,57.2,27.59,57.2,69.59a263.71,263.71,0,0,1-2.8,38l-40.4-4.8c1.2-10.4,2-12.8,2-28.8,0-26.8-4-33.2-12.4-33.2-8.8,0-11.6,6-11.6,24v6.4c0,17.6,6.8,35.6,25.6,59.6,26.4,34,44,70.8,44,110Z"/><path class="cls-1" d="M421.7,302.7h-12v110H356.5V105.51h63.2c45.6,0,68,24.39,68,97.19C487.7,279.5,459.3,302.7,421.7,302.7Zm-6.4-154.8h-5.6V260.3h6c12,0,20-12,20-58C435.7,159.5,428.5,147.9,415.3,147.9Z"/><path class="cls-1" d="M692.5,412.7H638.9l-4-42.8H603.3l-4,42.8H554.9l39.6-307.19h57.2Zm-62.8-85.6-9.6-122.4L607.7,327.1Z"/><path class="cls-1" d="M834.9,417.5c-39.6,0-64.4-20-64.4-65.2V167.1c0-44.39,24.8-66.79,63.6-66.79,35.2,0,60.8,12.4,60.8,67.59a315.6,315.6,0,0,1-3.2,42l-40.4-3.2a226.88,226.88,0,0,0,2.8-32.8c0-28.8-6.8-32.8-16.4-32.8s-14,4-14,19.6v196c0,14,3.6,20.4,15.6,20.4,8.8,0,14.8-6,14.8-35.2,0-9.6-1.2-21.2-2.8-32.8l40.8-3.2a282.46,282.46,0,0,1,3.2,42.4C895.3,404.7,869.7,417.5,834.9,417.5Z"/><path class="cls-1" d="M1092.49,412.7h-108V105.51h107.6V147.9h-54.4v85.2h45.2v43.2h-45.2v94h54.8Z"/><path class="cls-1" d="M41.43,66.08H31.5L27,43.4,25.59,47V66.08H16V10.63h9.57V27l5.83-16.35h9.15L32.94,30.8Z"/><path class="cls-1" d="M71.17,66.08H51.73V10.63H61.3v47.6h9.87Z"/><path class="cls-1" d="M106.67,65.93H97l-.72-7.7H90.61l-.72,7.7h-8L89,10.63h10.3ZM95.36,50.53l-1.73-22-2.23,22Z"/><path class="cls-1" d="M140.65,55.21c0,7.7-4.75,11.59-11.81,11.59-7.27,0-11.74-3.89-11.74-11.52V10.63h9.51V56.21c0,2.09,1.08,3.17,2.73,3.17s2.16-1.08,2.16-3.24V10.63h9.15Z"/><path class="cls-1" d="M177.58,54.34c0,8.79-4.46,11.59-12,11.59H153.61V10.63h11.73c8,0,12.24,3,12.24,12.53ZM168,22.15c0-3.16-.94-3.88-3-3.88h-1.87v40h1.73c2.31,0,3.1-.93,3.1-3.53Z"/><path class="cls-1" d="M199.83,66.08h-9.58V10.63h9.58Z"/><path class="cls-1" d="M236.26,65.93h-9.65l-.72-7.7h-5.68l-.72,7.7h-8l7.13-55.3h10.3ZM225,50.53l-1.73-22-2.23,22Z"/><path class="cls-1" d="M255,19.2c0,3.31-2.16,6.27-6.19,8.5l-2.45-2.38c2.31-1.51,4.18-2.95,4.32-5.83H246V10.63h9Z"/><path class="cls-1" d="M289.54,54.13c0,8.85-4.61,12.67-11.59,12.67-7.42,0-10.37-4.54-10.37-12.53a55.39,55.39,0,0,1,.58-7.78l7.2.87a46.45,46.45,0,0,0-.51,6.12c0,4.68.8,5.9,2.52,5.9s2.45-1.22,2.45-4.61V53.26c0-4.1-1.15-7.85-5.83-13.54s-6.55-10.15-6.55-16.49v-.86c0-7.2,2.81-12.67,11-12.67,7.85,0,10.3,5,10.3,12.53a48.76,48.76,0,0,1-.5,6.84L281,28.2a30.46,30.46,0,0,0,.36-5.18c0-4.83-.72-6-2.23-6S277,18.12,277,21.36v1.15c0,3.17,1.23,6.41,4.61,10.73,4.75,6.12,7.92,12.75,7.92,19.81Z"/></svg>